<?xml version="1.0" encoding="UTF-8" standalone="no"?>
<!DOCTYPE svg PUBLIC "-//W3C//DTD SVG 1.1//EN" "http://www.w3.org/Graphics/SVG/1.1/DTD/svg11.dtd">
<svg version="1.1" xmlns="http://www.w3.org/2000/svg" xmlns:xlink="http://www.w3.org/1999/xlink" preserveAspectRatio="xMidYMid meet" viewBox="0 0 640 640" width="640" height="640"><defs><path d="M568.6 141.21C591.92 141.21 610.82 160.11 610.82 183.43C610.82 241.62 610.82 375.09 610.82 433.55C610.82 456.1 592.54 474.37 570 474.37C464.06 474.37 184.72 474.37 78.19 474.37C57.26 474.37 40.29 457.41 40.29 436.47C40.29 377.42 40.29 239.33 40.29 180.56C40.29 158.83 57.91 141.21 79.64 141.21C185.88 141.21 462.94 141.21 568.6 141.21Z" id="b6twIEkiN"></path><path d="M570.52 141.21C587.81 141.21 601.82 155.23 601.82 172.51C601.82 228.88 601.82 366.12 601.82 422.34C601.82 440.02 587.49 454.34 569.82 454.34C465.71 454.34 183.13 454.34 78.46 454.34C62.35 454.34 49.29 441.28 49.29 425.17C49.29 368.38 49.29 228.3 49.29 171.79C49.29 154.9 62.98 141.21 79.87 141.21C184.26 141.21 466.27 141.21 570.52 141.21Z" id="brFg7JPDa"></path></defs><g><g><g><use xlink:href="#b6twIEkiN" opacity="1" fill="#242424" fill-opacity="1"></use></g><g><use xlink:href="#brFg7JPDa" opacity="1" fill="#322e2d" fill-opacity="1"></use><g><use xlink:href="#brFg7JPDa" opacity="1" fill-opacity="0" stroke="#44578f" stroke-width="19" stroke-opacity="1"></use></g></g></g></g></svg>